<svg width="91" height="40" viewBox="0 0 91 40" fill="none" xmlns="http://www.w3.org/2000/svg">
<path d="M51.36 8.8H54.816C55.5733 8.8 56.2613 8.90667 56.88 9.12C57.4987 9.33333 58.0107 9.616 58.416 9.968C58.8213 10.32 59.1573 10.7413 59.424 11.232C59.7013 11.712 59.8987 12.2187 60.016 12.752C60.144 13.2747 60.208 13.824 60.208 14.4C60.208 14.9333 60.1493 15.456 60.032 15.968C59.9253 16.48 59.7333 16.9867 59.456 17.488C59.1893 17.9787 58.8533 18.4107 58.448 18.784C58.0427 19.1467 57.52 19.44 56.88 19.664C56.2507 19.888 55.5413 20 54.752 20H51.36V8.8ZM55.024 18.192C55.5893 18.192 56.0853 18.08 56.512 17.856C56.9493 17.632 57.2853 17.3333 57.52 16.96C57.7653 16.576 57.9413 16.1707 58.048 15.744C58.1653 15.3173 58.224 14.8693 58.224 14.4C58.224 13.3547 57.968 12.464 57.456 11.728C56.944 10.9813 56.192 10.608 55.2 10.608H53.28V18.192H55.024ZM62.5319 20V8.8H69.8279V10.608H64.4519V13.312H67.7639V15.12H64.4519V18.192H70.1799V20H62.5319ZM72.3444 20V8.8H79.6404V10.608H74.2644V13.312H77.5764V15.12H74.2644V18.192H79.9924V20H72.3444ZM82.1569 20V8.8H86.8129C88.1035 8.8 89.0529 9.136 89.6609 9.808C90.2689 10.48 90.5729 11.3013 90.5729 12.272C90.5729 13.1893 90.2529 14 89.6129 14.704C88.9835 15.408 88.0502 15.76 86.8129 15.76H84.0769V20H82.1569ZM86.9089 13.936C87.4742 13.936 87.8955 13.7707 88.1729 13.44C88.4502 13.1093 88.5889 12.72 88.5889 12.272C88.5889 11.8453 88.4555 11.4667 88.1889 11.136C87.9329 10.7947 87.5062 10.624 86.9089 10.624H84.0769V13.936H86.9089Z" fill="white"/>
<path d="M58.0156 30.6348C58.0156 32.0488 57.6309 33.1309 56.8613 33.8809C56.0957 34.627 54.9922 35 53.5508 35H51.1777V26.4336H53.8027C55.1348 26.4336 56.1699 26.8027 56.9082 27.541C57.6465 28.2793 58.0156 29.3105 58.0156 30.6348ZM56.9609 30.6699C56.9609 29.5527 56.6797 28.7109 56.1172 28.1445C55.5586 27.5781 54.7266 27.2949 53.6211 27.2949H52.1738V34.1387H53.3867C54.5742 34.1387 55.4668 33.8477 56.0645 33.2656C56.6621 32.6797 56.9609 31.8145 56.9609 30.6699ZM63.7344 35L63.541 34.0859H63.4941C63.1738 34.4883 62.8535 34.7617 62.5332 34.9062C62.2168 35.0469 61.8203 35.1172 61.3438 35.1172C60.707 35.1172 60.207 34.9531 59.8438 34.625C59.4844 34.2969 59.3047 33.8301 59.3047 33.2246C59.3047 31.9277 60.3418 31.248 62.416 31.1855L63.5059 31.1504V30.752C63.5059 30.248 63.3965 29.877 63.1777 29.6387C62.9629 29.3965 62.6172 29.2754 62.1406 29.2754C61.6055 29.2754 61 29.4395 60.3242 29.7676L60.0254 29.0234C60.3418 28.8516 60.6875 28.7168 61.0625 28.6191C61.4414 28.5215 61.8203 28.4727 62.1992 28.4727C62.9648 28.4727 63.5312 28.6426 63.8984 28.9824C64.2695 29.3223 64.4551 29.8672 64.4551 30.6172V35H63.7344ZM61.5371 34.3145C62.1426 34.3145 62.6172 34.1484 62.9609 33.8164C63.3086 33.4844 63.4824 33.0195 63.4824 32.4219V31.8418L62.5098 31.8828C61.7363 31.9102 61.1777 32.0312 60.834 32.2461C60.4941 32.457 60.3242 32.7871 60.3242 33.2363C60.3242 33.5879 60.4297 33.8555 60.6406 34.0391C60.8555 34.2227 61.1543 34.3145 61.5371 34.3145ZM70.6074 33.248C70.6074 33.8457 70.3848 34.3066 69.9395 34.6309C69.4941 34.9551 68.8691 35.1172 68.0645 35.1172C67.2129 35.1172 66.5488 34.9824 66.0723 34.7129V33.8105C66.3809 33.9668 66.7109 34.0898 67.0625 34.1797C67.418 34.2695 67.7598 34.3145 68.0879 34.3145C68.5957 34.3145 68.9863 34.2344 69.2598 34.0742C69.5332 33.9102 69.6699 33.6621 69.6699 33.3301C69.6699 33.0801 69.5605 32.8672 69.3418 32.6914C69.127 32.5117 68.7051 32.3008 68.0762 32.0586C67.4785 31.8359 67.0527 31.6426 66.7988 31.4785C66.5488 31.3105 66.3613 31.1211 66.2363 30.9102C66.1152 30.6992 66.0547 30.4473 66.0547 30.1543C66.0547 29.6309 66.2676 29.2188 66.6934 28.918C67.1191 28.6133 67.7031 28.4609 68.4453 28.4609C69.1367 28.4609 69.8125 28.6016 70.4727 28.8828L70.127 29.6738C69.4824 29.4082 68.8984 29.2754 68.375 29.2754C67.9141 29.2754 67.5664 29.3477 67.332 29.4922C67.0977 29.6367 66.9805 29.8359 66.9805 30.0898C66.9805 30.2617 67.0234 30.4082 67.1094 30.5293C67.1992 30.6504 67.3418 30.7656 67.5371 30.875C67.7324 30.9844 68.1074 31.1426 68.6621 31.3496C69.4238 31.627 69.9375 31.9062 70.2031 32.1875C70.4727 32.4688 70.6074 32.8223 70.6074 33.248ZM76.5898 35V30.8457C76.5898 30.3223 76.4707 29.9316 76.2324 29.6738C75.9941 29.416 75.6211 29.2871 75.1133 29.2871C74.4375 29.2871 73.9434 29.4707 73.6309 29.8379C73.3223 30.2051 73.168 30.8066 73.168 31.6426V35H72.1953V25.8828H73.168V28.6426C73.168 28.9746 73.1523 29.25 73.1211 29.4688H73.1797C73.3711 29.1602 73.6426 28.918 73.9941 28.7422C74.3496 28.5625 74.7539 28.4727 75.207 28.4727C75.9922 28.4727 76.5801 28.6602 76.9707 29.0352C77.3652 29.4062 77.5625 29.998 77.5625 30.8105V35H76.5898Z" fill="white"/>
<rect width="40" height="40" fill="white"/>
<path d="M10 10H19.5C24.7467 10 29 14.2533 29 19.5V19.5C29 24.7467 24.7467 29 19.5 29H10V10Z" fill="#6257FE"/>
</svg>
